<svg xmlns="http://www.w3.org/2000/svg" height="512pt" version="1.1" viewBox="0 -1 512 512" width="512pt">
<g id="surface1">
<path d="M 365.148438 337.390625 C 332.4375 348.839844 308.972656 379.960938 308.972656 416.578125 C 308.972656 453.195312 332.4375 484.3125 365.148438 495.765625 C 397.855469 484.3125 421.324219 453.195312 421.324219 416.578125 C 421.324219 379.960938 397.855469 348.839844 365.148438 337.390625 Z M 365.148438 337.390625 " style=" stroke:none;fill-rule:nonzero;fill:rgb(78.823529%,95.294118%,100%);fill-opacity:1;" />
<path d="M 457.480469 13.203125 C 431.984375 21.605469 413.574219 45.597656 413.574219 73.910156 C 413.574219 102.21875 431.984375 126.214844 457.480469 134.617188 C 482.976562 126.214844 501.386719 102.21875 501.386719 73.910156 C 501.386719 45.601562 482.976562 21.605469 457.480469 13.203125 Z M 457.480469 13.203125 " style=" stroke:none;fill-rule:nonzero;fill:rgb(78.823529%,95.294118%,100%);fill-opacity:1;" />
<path d="M 425.652344 114.382812 C 425.652344 104.8125 432.472656 96.597656 441.882812 94.84375 L 453.417969 92.691406 L 455.214844 92.691406 L 455.175781 92.683594 L 419.710938 92.691406 L 408.175781 94.84375 C 398.765625 96.597656 391.941406 104.8125 391.941406 114.382812 L 391.941406 118.769531 C 403.535156 130.53125 419.644531 137.832031 437.464844 137.832031 C 443.300781 137.832031 448.949219 137.035156 454.320312 135.570312 C 443.292969 132.558594 433.445312 126.679688 425.652344 118.769531 Z M 425.652344 114.382812 " style=" stroke:none;fill-rule:nonzero;fill:rgb(100%,100%,100%);fill-opacity:1;" />
<path d="M 482.988281 114.382812 C 482.988281 104.8125 476.164062 96.597656 466.753906 94.84375 L 455.214844 92.691406 L 453.417969 92.691406 L 441.882812 94.84375 C 432.472656 96.597656 425.652344 104.8125 425.652344 114.382812 L 425.652344 118.769531 C 433.445312 126.679688 443.292969 132.558594 454.320312 135.570312 C 465.347656 132.558594 475.191406 126.683594 482.988281 118.773438 Z M 482.988281 114.382812 " style=" stroke:none;fill-rule:nonzero;fill:rgb(100%,36.470588%,36.470588%);fill-opacity:1;" />
<path d="M 433.765625 79.460938 L 433.765625 72.679688 C 433.765625 63.914062 438.96875 56.371094 446.453125 52.953125 C 443.714844 51.703125 440.671875 51 437.464844 51 C 425.492188 51 415.785156 60.707031 415.785156 72.679688 L 415.785156 79.460938 C 415.785156 91.433594 425.492188 101.136719 437.464844 101.136719 C 440.671875 101.136719 443.714844 100.433594 446.453125 99.183594 C 438.96875 95.769531 433.765625 88.222656 433.765625 79.460938 Z M 433.765625 79.460938 " style=" stroke:none;fill-rule:nonzero;fill:rgb(100%,100%,100%);fill-opacity:1;" />
<path d="M 459.140625 79.460938 L 459.140625 72.679688 C 459.140625 63.914062 453.9375 56.371094 446.453125 52.953125 C 438.96875 56.371094 433.765625 63.914062 433.765625 72.679688 L 433.765625 79.460938 C 433.765625 88.222656 438.96875 95.769531 446.453125 99.183594 C 453.9375 95.769531 459.140625 88.222656 459.140625 79.460938 Z M 459.140625 79.460938 " style=" stroke:none;fill-rule:nonzero;fill:rgb(98.823529%,77.647059%,61.568627%);fill-opacity:1;" />
<path d="M 315.296875 469.699219 C 315.296875 457.136719 324.25 446.355469 336.601562 444.050781 L 351.742188 441.226562 L 360.714844 441.226562 L 360.667969 441.214844 L 314.121094 441.226562 L 298.980469 444.050781 C 286.628906 446.355469 277.675781 457.136719 277.675781 469.699219 L 277.675781 475.453125 C 292.890625 490.894531 314.035156 500.472656 337.425781 500.472656 C 343.894531 500.472656 350.183594 499.714844 356.234375 498.328125 C 340.417969 494.699219 326.300781 486.621094 315.292969 475.453125 L 315.292969 469.699219 Z M 315.296875 469.699219 " style=" stroke:none;fill-rule:nonzero;fill:rgb(100%,100%,100%);fill-opacity:1;" />
<path d="M 397.171875 469.699219 C 397.171875 457.136719 388.214844 446.355469 375.863281 444.050781 L 360.714844 441.226562 L 351.742188 441.226562 L 336.601562 444.050781 C 324.25 446.355469 315.296875 457.136719 315.296875 469.699219 L 315.296875 475.453125 C 326.300781 486.621094 340.417969 494.699219 356.234375 498.328125 C 372.050781 494.699219 386.167969 486.625 397.171875 475.457031 Z M 397.171875 469.699219 " style=" stroke:none;fill-rule:nonzero;fill:rgb(62.745098%,89.803922%,34.117647%);fill-opacity:1;" />
<path d="M 332.441406 423.863281 L 332.441406 414.960938 C 332.441406 403.433594 339.304688 393.515625 349.160156 389.046875 C 345.582031 387.421875 341.609375 386.511719 337.421875 386.511719 C 321.710938 386.511719 308.972656 399.25 308.972656 414.960938 L 308.972656 423.863281 C 308.972656 439.578125 321.710938 452.3125 337.421875 452.3125 C 341.609375 452.3125 345.582031 451.402344 349.160156 449.777344 C 339.300781 445.308594 332.441406 435.390625 332.441406 423.863281 Z M 332.441406 423.863281 " style=" stroke:none;fill-rule:nonzero;fill:rgb(100%,100%,100%);fill-opacity:1;" />
<path d="M 365.875 423.863281 L 365.875 414.960938 C 365.875 403.433594 359.015625 393.515625 349.160156 389.046875 C 339.304688 393.515625 332.441406 403.433594 332.441406 414.960938 L 332.441406 423.863281 C 332.441406 435.390625 339.304688 445.308594 349.160156 449.777344 C 359.015625 445.308594 365.875 435.390625 365.875 423.863281 Z M 365.875 423.863281 " style=" stroke:none;fill-rule:nonzero;fill:rgb(98.823529%,77.647059%,61.568627%);fill-opacity:1;" />
<path d="M 121.609375 92.09375 C 88.898438 103.546875 65.433594 134.664062 65.433594 171.28125 C 65.433594 207.898438 88.898438 239.019531 121.609375 250.46875 C 154.316406 239.019531 177.78125 207.898438 177.78125 171.28125 C 177.78125 134.664062 154.316406 103.546875 121.609375 92.09375 Z M 121.609375 92.09375 " style=" stroke:none;fill-rule:nonzero;fill:rgb(78.823529%,95.294118%,100%);fill-opacity:1;" />
<path d="M 69.730469 224.40625 C 69.730469 211.839844 78.6875 201.0625 91.039062 198.757812 L 106.179688 195.933594 L 117.171875 195.929688 L 117.128906 195.921875 L 70.582031 195.933594 L 55.441406 198.757812 C 43.089844 201.0625 34.132812 211.839844 34.132812 224.40625 L 34.132812 230.160156 C 49.351562 245.601562 70.496094 255.179688 93.886719 255.179688 C 99.996094 255.179688 105.945312 254.511719 111.683594 253.269531 C 95.457031 249.761719 80.972656 241.566406 69.730469 230.160156 Z M 69.730469 224.40625 " style=" stroke:none;fill-rule:nonzero;fill:rgb(100%,100%,100%);fill-opacity:1;" />
<path d="M 153.632812 224.40625 C 153.632812 211.839844 144.675781 201.0625 132.324219 198.757812 L 117.171875 195.929688 L 106.179688 195.933594 L 91.039062 198.757812 C 78.6875 201.0625 69.730469 211.839844 69.730469 224.40625 L 69.730469 230.160156 C 80.972656 241.566406 95.457031 249.761719 111.683594 253.269531 C 127.910156 249.761719 142.390625 241.570312 153.628906 230.167969 L 153.628906 224.40625 Z M 153.632812 224.40625 " style=" stroke:none;fill-rule:nonzero;fill:rgb(30.196078%,72.941176%,96.470588%);fill-opacity:1;" />
<path d="M 93.15625 178.570312 L 93.15625 169.667969 C 93.15625 158.988281 99.042969 149.6875 107.746094 144.824219 C 103.640625 142.527344 98.917969 141.214844 93.882812 141.214844 C 78.167969 141.214844 65.429688 153.953125 65.429688 169.667969 L 65.429688 178.570312 C 65.429688 194.28125 78.167969 207.019531 93.882812 207.019531 C 98.917969 207.019531 103.640625 205.707031 107.746094 203.414062 C 99.042969 198.546875 93.15625 189.246094 93.15625 178.570312 Z M 93.15625 178.570312 " style=" stroke:none;fill-rule:nonzero;fill:rgb(100%,100%,100%);fill-opacity:1;" />
<path d="M 122.335938 178.570312 L 122.335938 169.667969 C 122.335938 158.988281 116.449219 149.6875 107.746094 144.824219 C 99.042969 149.6875 93.15625 158.988281 93.15625 169.667969 L 93.15625 178.570312 C 93.15625 189.246094 99.042969 198.546875 107.746094 203.414062 C 116.449219 198.546875 122.335938 189.246094 122.335938 178.570312 Z M 122.335938 178.570312 " style=" stroke:none;fill-rule:nonzero;fill:rgb(98.823529%,77.647059%,61.568627%);fill-opacity:1;" />
<path d="M 331.554688 115.410156 C 334.183594 115.410156 336.757812 114.34375 338.617188 112.484375 C 340.472656 110.628906 341.542969 108.050781 341.542969 105.421875 C 341.542969 102.785156 340.472656 100.21875 338.617188 98.351562 C 336.757812 96.496094 334.183594 95.433594 331.554688 95.433594 C 328.929688 95.433594 326.351562 96.496094 324.492188 98.351562 C 322.636719 100.21875 321.566406 102.785156 321.566406 105.421875 C 321.566406 108.050781 322.636719 110.628906 324.492188 112.484375 C 326.351562 114.34375 328.929688 115.410156 331.554688 115.410156 Z M 331.554688 115.410156 " style=" stroke:none;fill-rule:nonzero;fill:rgb(0%,0%,0%);fill-opacity:1;" />
<path d="M 179.242188 248.90625 C 176.613281 248.90625 174.039062 249.976562 172.179688 251.835938 C 170.320312 253.691406 169.253906 256.269531 169.253906 258.894531 C 169.253906 261.523438 170.320312 264.101562 172.179688 265.957031 C 174.039062 267.816406 176.613281 268.882812 179.242188 268.882812 C 181.867188 268.882812 184.445312 267.816406 186.300781 265.957031 C 188.160156 264.101562 189.230469 261.523438 189.230469 258.894531 C 189.230469 256.269531 188.160156 253.691406 186.300781 251.835938 C 184.445312 249.976562 181.867188 248.90625 179.242188 248.90625 Z M 179.242188 248.90625 " style=" stroke:none;fill-rule:nonzero;fill:rgb(0%,0%,0%);fill-opacity:1;" />
<path d="M 438.089844 0 C 397.335938 0 364.179688 33.15625 364.179688 73.910156 C 364.179688 114.664062 397.335938 147.820312 438.089844 147.820312 C 478.84375 147.820312 512 114.664062 512 73.910156 C 512 33.15625 478.84375 0 438.089844 0 Z M 438.089844 19.976562 C 467.828125 19.976562 492.023438 44.171875 492.023438 73.910156 C 492.023438 81.785156 490.316406 89.261719 487.269531 96.011719 C 482.917969 90.441406 476.613281 86.417969 469.253906 85.03125 C 469.574219 83.222656 469.753906 81.363281 469.753906 79.460938 L 469.753906 72.679688 C 469.753906 55.21875 455.550781 41.011719 438.089844 41.011719 C 420.628906 41.011719 406.421875 55.21875 406.421875 72.679688 L 406.421875 79.460938 C 406.421875 81.363281 406.601562 83.222656 406.925781 85.03125 C 399.5625 86.417969 393.261719 90.441406 388.910156 96.007812 C 385.867188 89.257812 384.15625 81.78125 384.15625 73.910156 C 384.15625 44.171875 408.351562 19.976562 438.089844 19.976562 Z M 426.398438 79.460938 L 426.398438 72.679688 C 426.398438 66.230469 431.640625 60.988281 438.089844 60.988281 C 444.535156 60.988281 449.777344 66.230469 449.777344 72.679688 L 449.777344 79.460938 C 449.777344 85.90625 444.535156 91.148438 438.089844 91.148438 C 431.640625 91.148438 426.398438 85.90625 426.398438 79.460938 Z M 402.554688 114.429688 L 402.554688 114.382812 C 402.554688 109.621094 405.949219 105.535156 410.628906 104.660156 L 417.394531 103.398438 C 422.949219 108.207031 430.183594 111.125 438.089844 111.125 C 445.992188 111.125 453.226562 108.207031 458.78125 103.398438 L 465.546875 104.660156 C 470.226562 105.535156 473.625 109.625 473.625 114.382812 L 473.625 114.433594 C 464.125 122.769531 451.695312 127.84375 438.089844 127.84375 C 424.484375 127.84375 412.050781 122.769531 402.554688 114.429688 Z M 402.554688 114.429688 " style=" stroke:none;fill-rule:nonzero;fill:rgb(0%,0%,0%);fill-opacity:1;" />
<path d="M 337.425781 322.691406 C 315.164062 322.691406 294.691406 330.484375 278.582031 343.480469 L 210.832031 276.191406 C 206.917969 272.304688 200.59375 272.324219 196.707031 276.238281 C 192.820312 280.152344 192.839844 286.476562 196.753906 290.363281 L 264.441406 357.589844 C 251.378906 373.722656 243.539062 394.25 243.539062 416.578125 C 243.539062 468.34375 285.65625 510.460938 337.425781 510.460938 C 389.191406 510.460938 431.308594 468.34375 431.308594 416.578125 C 431.308594 364.808594 389.195312 322.691406 337.425781 322.691406 Z M 287.664062 471.175781 L 287.664062 469.699219 C 287.664062 461.949219 293.191406 455.292969 300.8125 453.871094 L 311.203125 451.933594 C 318.074219 458.359375 327.296875 462.300781 337.425781 462.300781 C 347.554688 462.300781 356.773438 458.359375 363.644531 451.933594 L 374.035156 453.871094 C 381.652344 455.292969 387.183594 461.949219 387.183594 469.699219 L 387.183594 471.179688 C 374.042969 483.167969 356.574219 490.484375 337.425781 490.484375 C 318.277344 490.484375 300.804688 483.164062 287.664062 471.175781 Z M 355.886719 423.863281 C 355.886719 434.042969 347.605469 442.324219 337.421875 442.324219 C 327.242188 442.324219 318.960938 434.042969 318.960938 423.863281 L 318.960938 414.960938 C 318.960938 404.78125 327.242188 396.496094 337.421875 396.496094 C 347.605469 396.496094 355.886719 404.78125 355.886719 414.960938 Z M 402.394531 451.789062 C 397.273438 442.847656 388.40625 436.230469 377.695312 434.234375 L 374.59375 433.65625 C 375.417969 430.527344 375.863281 427.246094 375.863281 423.863281 L 375.863281 414.960938 C 375.863281 393.765625 358.617188 376.523438 337.421875 376.523438 C 316.226562 376.523438 298.984375 393.765625 298.984375 414.960938 L 298.984375 423.863281 C 298.984375 427.246094 299.425781 430.527344 300.253906 433.65625 L 297.148438 434.234375 C 286.441406 436.230469 277.574219 442.84375 272.453125 451.785156 C 266.753906 441.3125 263.515625 429.316406 263.515625 416.578125 C 263.515625 375.820312 296.671875 342.667969 337.425781 342.667969 C 378.179688 342.667969 411.335938 375.820312 411.335938 416.578125 C 411.335938 429.316406 408.09375 441.316406 402.394531 451.789062 Z M 402.394531 451.789062 " style=" stroke:none;fill-rule:nonzero;fill:rgb(0%,0%,0%);fill-opacity:1;" />
<path d="M 186.515625 155.976562 L 298.046875 125.070312 C 303.363281 123.597656 306.476562 118.09375 305.003906 112.777344 C 303.53125 107.460938 298.027344 104.347656 292.710938 105.820312 L 181.179688 136.726562 C 167.386719 102.007812 133.457031 77.398438 93.886719 77.398438 C 42.117188 77.398438 0 119.515625 0 171.28125 C 0 223.050781 42.117188 265.167969 93.886719 265.167969 C 145.652344 265.167969 187.769531 223.050781 187.769531 171.28125 C 187.769531 166.070312 187.335938 160.960938 186.515625 155.976562 Z M 44.121094 225.878906 L 44.121094 224.40625 C 44.121094 216.65625 49.652344 209.996094 57.273438 208.578125 L 67.660156 206.640625 C 74.535156 213.0625 83.753906 217.007812 93.882812 217.007812 C 104.011719 217.007812 113.230469 213.0625 120.105469 206.640625 L 130.492188 208.578125 C 138.113281 209.996094 143.644531 216.65625 143.644531 224.40625 L 143.644531 225.886719 C 130.5 237.871094 113.03125 245.191406 93.886719 245.191406 C 74.734375 245.191406 57.265625 237.871094 44.121094 225.878906 Z M 112.347656 178.570312 C 112.347656 188.75 104.0625 197.03125 93.882812 197.03125 C 83.703125 197.03125 75.421875 188.75 75.421875 178.570312 L 75.421875 169.667969 C 75.421875 159.488281 83.703125 151.203125 93.882812 151.203125 C 104.0625 151.203125 112.347656 159.488281 112.347656 169.667969 Z M 158.855469 206.496094 C 153.734375 197.554688 144.867188 190.9375 134.15625 188.9375 L 131.054688 188.359375 C 131.878906 185.234375 132.324219 181.953125 132.324219 178.570312 L 132.324219 169.667969 C 132.324219 148.472656 115.078125 131.230469 93.882812 131.230469 C 72.6875 131.230469 55.445312 148.472656 55.445312 169.667969 L 55.445312 178.570312 C 55.445312 181.953125 55.886719 185.234375 56.710938 188.359375 L 53.609375 188.9375 C 42.902344 190.9375 34.035156 197.550781 28.914062 206.492188 C 23.214844 196.019531 19.976562 184.019531 19.976562 171.28125 C 19.976562 130.527344 53.132812 97.375 93.886719 97.375 C 134.640625 97.375 167.796875 130.527344 167.796875 171.28125 C 167.796875 184.023438 164.554688 196.019531 158.855469 206.496094 Z M 158.855469 206.496094 " style=" stroke:none;fill-rule:nonzero;fill:rgb(0%,0%,0%);fill-opacity:1;" />
</g>
</svg>